<svg xmlns="http://www.w3.org/2000/svg" xmlns:xlink="http://www.w3.org/1999/xlink" width="4000" zoomAndPan="magnify" viewBox="0 0 3000 2999.999989" height="4000" preserveAspectRatio="xMidYMid meet" version="1.0"><defs><g/></defs><rect x="-300" width="3600" fill="#ffffff" y="-299.999999" height="3599.999987" fill-opacity="1"/><rect x="-300" width="3600" fill="#b58676" y="-299.999999" height="3599.999987" fill-opacity="1"/><g fill="#000000" fill-opacity="1"><g transform="translate(1372.675713, 1881.094935)"><g><path d="M 995.9375 89 C 933.9375 160.988281 850.609375 196.984375 745.953125 196.984375 C 665.953125 196.984375 584.289062 182.988281 500.96875 155 C 406.3125 123 331.648438 95 276.984375 71 C 174.328125 25.664062 106 2 72 0 L 60 0 L 60 -9 L 479.984375 -670.953125 L 143 -670.953125 C 120.332031 -670.285156 103.332031 -660.285156 92 -640.953125 C 86.664062 -631.617188 84 -621.617188 84 -610.953125 L 84 -592.953125 L 74 -592.953125 L 74 -718.953125 C 84 -714.953125 101.664062 -710.953125 127 -706.953125 C 152.332031 -702.953125 169.828125 -700.953125 179.484375 -700.953125 C 189.148438 -700.953125 194.316406 -700.953125 194.984375 -700.953125 L 473.984375 -700.953125 C 501.960938 -700.953125 525.617188 -702.617188 544.953125 -705.953125 C 564.285156 -709.285156 575.953125 -711.953125 579.953125 -713.953125 L 579.953125 -704.953125 L 143 -15 C 149 -13.664062 184.660156 -2.332031 249.984375 19 C 477.960938 93.664062 646.953125 131 756.953125 131 C 841.609375 131 919.601562 114.332031 990.9375 81 Z M 995.9375 89 "/></g></g></g><g fill="#000000" fill-opacity="1"><g transform="translate(763.807705, 1644.103921)"><g><path d="M 1099.9375 162 C 1103.9375 162 1107.9375 162 1111.9375 162 L 1111.9375 171.984375 C 1093.269531 174.648438 1072.4375 175.984375 1049.4375 175.984375 C 1026.4375 175.984375 998.101562 170.984375 964.4375 160.984375 C 930.769531 150.992188 900.269531 132.332031 872.9375 105 C 816.945312 49 782.953125 -23.664062 770.953125 -113 L 709.953125 -557.953125 L 501.96875 -88 C 483.3125 -47.332031 471.984375 -13.332031 467.984375 14 L 457.984375 14 L 198.984375 -548.953125 L 155 -52 C 153.664062 -40.664062 157.160156 -30.664062 165.484375 -22 C 173.816406 -13.332031 182.984375 -9 192.984375 -9 L 208.984375 -9 L 208.984375 0 L 15 0 L 15 -10 L 31 -10 C 49 -10 64.832031 -15.5 78.5 -26.5 C 92.164062 -37.5 100.664062 -52 104 -70 L 166.984375 -615.953125 C 108.328125 -731.285156 38 -788.953125 -44 -788.953125 C -51.332031 -788.953125 -59 -788.617188 -67 -787.953125 L -67 -797.953125 C -49 -802.617188 -34.332031 -804.953125 -23 -804.953125 C -11.664062 -804.953125 0.664062 -804.453125 14 -803.453125 C 27.332031 -802.453125 43 -799.285156 61 -793.953125 C 79 -788.617188 96 -780.785156 112 -770.453125 C 128 -760.117188 141.992188 -749.453125 153.984375 -738.453125 C 165.984375 -727.453125 177.316406 -715.285156 187.984375 -701.953125 C 205.984375 -677.953125 220.316406 -654.953125 230.984375 -632.953125 L 471.984375 -111 L 740.953125 -713.953125 L 749.953125 -713.953125 L 842.9375 -122 C 856.9375 -28.664062 887.101562 42 933.4375 90 C 979.769531 138 1035.269531 162 1099.9375 162 Z M 1099.9375 162 "/></g></g></g><path fill="#b58676" d="M 698.679688 1429.972656 L 2045.476562 1429.972656 C 2054.367188 1429.972656 2062.890625 1433.503906 2069.175781 1439.789062 C 2075.460938 1446.074219 2078.988281 1454.597656 2078.988281 1463.488281 L 2078.988281 1530.511719 C 2078.988281 1539.402344 2075.460938 1547.925781 2069.175781 1554.210938 C 2062.890625 1560.496094 2054.367188 1564.027344 2045.476562 1564.027344 L 698.679688 1564.027344 C 689.789062 1564.027344 681.265625 1560.496094 674.980469 1554.210938 C 668.695312 1547.925781 665.164062 1539.402344 665.164062 1530.511719 L 665.164062 1463.488281 C 665.164062 1454.597656 668.695312 1446.074219 674.980469 1439.789062 C 681.265625 1433.503906 689.789062 1429.972656 698.679688 1429.972656 Z M 698.679688 1429.972656 " fill-opacity="1" fill-rule="nonzero"/><g fill="#000000" fill-opacity="1"><g transform="translate(727.70886, 1524.000031)"><g><path d="M 46.53125 -14.984375 L 65.03125 -61.671875 L 88.421875 -61.671875 L 88.421875 -58.46875 C 86.660156 -58.46875 85.234375 -58.289062 84.140625 -57.9375 C 83.046875 -57.59375 82.203125 -56.96875 81.609375 -56.0625 C 81.023438 -55.15625 80.640625 -53.914062 80.453125 -52.34375 C 80.265625 -50.769531 80.171875 -48.78125 80.171875 -46.375 L 80.171875 -15.296875 C 80.171875 -12.628906 80.273438 -10.519531 80.484375 -8.96875 C 80.703125 -7.414062 81.128906 -6.210938 81.765625 -5.359375 C 82.410156 -4.503906 83.332031 -3.941406 84.53125 -3.671875 C 85.738281 -3.410156 87.328125 -3.253906 89.296875 -3.203125 L 89.296875 0 L 59.1875 0 L 59.1875 -3.203125 C 61.164062 -3.253906 62.753906 -3.425781 63.953125 -3.71875 C 65.148438 -4.019531 66.082031 -4.566406 66.75 -5.359375 C 67.425781 -6.160156 67.867188 -7.296875 68.078125 -8.765625 C 68.296875 -10.234375 68.40625 -12.222656 68.40625 -14.734375 L 68.40625 -52.21875 L 68 -52.21875 L 46.453125 0.796875 L 40.53125 0.796875 L 18.265625 -52.21875 L 17.9375 -52.21875 L 17.9375 -15.296875 C 17.9375 -12.628906 18.039062 -10.519531 18.25 -8.96875 C 18.46875 -7.414062 18.894531 -6.210938 19.53125 -5.359375 C 20.175781 -4.503906 21.097656 -3.941406 22.296875 -3.671875 C 23.503906 -3.410156 25.097656 -3.253906 27.078125 -3.203125 L 27.078125 0 L 2.40625 0 L 2.40625 -3.203125 C 4.375 -3.253906 5.972656 -3.425781 7.203125 -3.71875 C 8.429688 -4.019531 9.378906 -4.566406 10.046875 -5.359375 C 10.710938 -6.160156 11.148438 -7.296875 11.359375 -8.765625 C 11.578125 -10.234375 11.6875 -12.222656 11.6875 -14.734375 L 11.6875 -46.9375 C 11.6875 -49.175781 11.578125 -51.039062 11.359375 -52.53125 C 11.148438 -54.03125 10.753906 -55.21875 10.171875 -56.09375 C 9.585938 -56.976562 8.742188 -57.59375 7.640625 -57.9375 C 6.546875 -58.289062 5.09375 -58.46875 3.28125 -58.46875 L 3.28125 -61.671875 L 27.546875 -61.671875 L 46.21875 -14.984375 Z M 46.53125 -14.984375 "/></g></g></g><g fill="#000000" fill-opacity="1"><g transform="translate(880.361183, 1524.000031)"><g><path d="M 40.125 -18.65625 L 17.453125 -18.65625 C 14.953125 -13 13.703125 -9.078125 13.703125 -6.890625 C 13.703125 -5.285156 14.300781 -4.269531 15.5 -3.84375 C 16.695312 -3.414062 18.5 -3.203125 20.90625 -3.203125 L 20.90625 0 L -1.046875 0 L -1.046875 -3.203125 C 0.234375 -3.359375 1.34375 -3.570312 2.28125 -3.84375 C 3.21875 -4.113281 4.046875 -4.488281 4.765625 -4.96875 C 5.484375 -5.445312 6.109375 -6.070312 6.640625 -6.84375 C 7.179688 -7.625 7.691406 -8.570312 8.171875 -9.6875 L 29.234375 -62.46875 L 35.15625 -62.46875 L 54.296875 -15.703125 C 55.421875 -12.972656 56.367188 -10.832031 57.140625 -9.28125 C 57.921875 -7.738281 58.75 -6.550781 59.625 -5.71875 C 60.507812 -4.894531 61.523438 -4.320312 62.671875 -4 C 63.816406 -3.6875 65.300781 -3.445312 67.125 -3.28125 L 67.125 0 L 36.84375 0 L 36.84375 -3.28125 C 39.40625 -3.382812 41.242188 -3.648438 42.359375 -4.078125 C 43.484375 -4.503906 44.046875 -5.359375 44.046875 -6.640625 C 44.046875 -7.390625 43.859375 -8.351562 43.484375 -9.53125 C 43.117188 -10.707031 42.613281 -12.148438 41.96875 -13.859375 Z M 19.296875 -23.46875 L 38.359375 -23.46875 L 29.15625 -47.734375 L 28.828125 -47.734375 Z M 19.296875 -23.46875 "/></g></g></g><g fill="#000000" fill-opacity="1"><g transform="translate(1006.112381, 1524.000031)"><g><path d="M 31.484375 0 L 2.890625 0 L 2.890625 -3.203125 C 4.703125 -3.253906 6.15625 -3.425781 7.25 -3.71875 C 8.34375 -4.019531 9.179688 -4.566406 9.765625 -5.359375 C 10.359375 -6.160156 10.757812 -7.296875 10.96875 -8.765625 C 11.1875 -10.234375 11.296875 -12.222656 11.296875 -14.734375 L 11.296875 -46.9375 C 11.296875 -49.175781 11.203125 -51.03125 11.015625 -52.5 C 10.828125 -53.96875 10.460938 -55.128906 9.921875 -55.984375 C 9.390625 -56.835938 8.628906 -57.4375 7.640625 -57.78125 C 6.660156 -58.132812 5.34375 -58.363281 3.6875 -58.46875 L 3.6875 -61.671875 L 30.671875 -61.671875 L 30.671875 -58.46875 C 29.015625 -58.363281 27.691406 -58.132812 26.703125 -57.78125 C 25.722656 -57.4375 24.960938 -56.835938 24.421875 -55.984375 C 23.890625 -55.128906 23.53125 -53.96875 23.34375 -52.5 C 23.15625 -51.03125 23.0625 -49.175781 23.0625 -46.9375 L 23.0625 -14.734375 C 23.0625 -12.222656 23.15625 -10.234375 23.34375 -8.765625 C 23.53125 -7.296875 23.929688 -6.160156 24.546875 -5.359375 C 25.160156 -4.566406 26.015625 -4.019531 27.109375 -3.71875 C 28.203125 -3.425781 29.660156 -3.253906 31.484375 -3.203125 Z M 31.484375 0 "/></g></g></g><g fill="#000000" fill-opacity="1"><g transform="translate(1101.439693, 1524.000031)"><g><path d="M 4.328125 -20.421875 L 7.453125 -20.421875 C 8.191406 -15.347656 10.21875 -11.351562 13.53125 -8.4375 C 16.84375 -5.53125 20.929688 -4.078125 25.796875 -4.078125 C 27.765625 -4.078125 29.578125 -4.316406 31.234375 -4.796875 C 32.890625 -5.285156 34.304688 -5.96875 35.484375 -6.84375 C 36.660156 -7.726562 37.566406 -8.769531 38.203125 -9.96875 C 38.847656 -11.175781 39.171875 -12.523438 39.171875 -14.015625 C 39.171875 -15.296875 38.96875 -16.398438 38.5625 -17.328125 C 38.164062 -18.265625 37.40625 -19.175781 36.28125 -20.0625 C 35.15625 -20.945312 33.617188 -21.84375 31.671875 -22.75 C 29.722656 -23.65625 27.203125 -24.695312 24.109375 -25.875 C 17.859375 -28.269531 13.238281 -31.054688 10.25 -34.234375 C 7.257812 -37.410156 5.765625 -41.164062 5.765625 -45.5 C 5.765625 -48 6.242188 -50.289062 7.203125 -52.375 C 8.171875 -54.457031 9.519531 -56.242188 11.25 -57.734375 C 12.988281 -59.234375 15.070312 -60.394531 17.5 -61.21875 C 19.925781 -62.050781 22.609375 -62.46875 25.546875 -62.46875 C 28.273438 -62.46875 30.835938 -62.039062 33.234375 -61.1875 C 35.640625 -60.332031 38.019531 -59.050781 40.375 -57.34375 L 41.8125 -61.359375 L 43.734375 -61.359375 L 44.609375 -44.046875 L 41.484375 -44.046875 C 40.203125 -48.429688 38.195312 -51.785156 35.46875 -54.109375 C 32.75 -56.429688 29.601562 -57.59375 26.03125 -57.59375 C 22.71875 -57.59375 20.03125 -56.773438 17.96875 -55.140625 C 15.914062 -53.515625 14.890625 -51.421875 14.890625 -48.859375 C 14.890625 -47.734375 15.078125 -46.726562 15.453125 -45.84375 C 15.828125 -44.96875 16.519531 -44.128906 17.53125 -43.328125 C 18.550781 -42.523438 19.941406 -41.707031 21.703125 -40.875 C 23.460938 -40.050781 25.734375 -39.132812 28.515625 -38.125 C 32.253906 -36.6875 35.441406 -35.234375 38.078125 -33.765625 C 40.722656 -32.296875 42.882812 -30.71875 44.5625 -29.03125 C 46.25 -27.351562 47.492188 -25.578125 48.296875 -23.703125 C 49.097656 -21.835938 49.5 -19.785156 49.5 -17.546875 C 49.5 -14.816406 48.910156 -12.332031 47.734375 -10.09375 C 46.554688 -7.851562 44.910156 -5.929688 42.796875 -4.328125 C 40.691406 -2.722656 38.1875 -1.46875 35.28125 -0.5625 C 32.375 0.34375 29.15625 0.796875 25.625 0.796875 C 22.425781 0.796875 19.546875 0.359375 16.984375 -0.515625 C 14.421875 -1.398438 11.773438 -2.832031 9.046875 -4.8125 L 7.453125 0 L 5.53125 0 Z M 4.328125 -20.421875 "/></g></g></g><g fill="#000000" fill-opacity="1"><g transform="translate(1215.501716, 1524.000031)"><g><path d="M 37.796875 -62.46875 C 42.609375 -62.46875 47.09375 -61.640625 51.25 -59.984375 C 55.414062 -58.328125 59.035156 -56.054688 62.109375 -53.171875 C 65.179688 -50.296875 67.597656 -46.90625 69.359375 -43 C 71.117188 -39.101562 72 -34.890625 72 -30.359375 C 72 -26.035156 71.101562 -21.976562 69.3125 -18.1875 C 67.53125 -14.394531 65.101562 -11.09375 62.03125 -8.28125 C 58.957031 -5.476562 55.335938 -3.265625 51.171875 -1.640625 C 47.015625 -0.015625 42.554688 0.796875 37.796875 0.796875 C 33.046875 0.796875 28.585938 -0.015625 24.421875 -1.640625 C 20.265625 -3.265625 16.632812 -5.476562 13.53125 -8.28125 C 10.4375 -11.09375 8.007812 -14.394531 6.25 -18.1875 C 4.488281 -21.976562 3.609375 -26.035156 3.609375 -30.359375 C 3.609375 -34.890625 4.488281 -39.101562 6.25 -43 C 8.007812 -46.90625 10.421875 -50.296875 13.484375 -53.171875 C 16.554688 -56.054688 20.175781 -58.328125 24.34375 -59.984375 C 28.507812 -61.640625 32.992188 -62.46875 37.796875 -62.46875 Z M 37.796875 -4.40625 C 40.898438 -4.40625 43.707031 -5.003906 46.21875 -6.203125 C 48.726562 -7.410156 50.863281 -9.117188 52.625 -11.328125 C 54.382812 -13.546875 55.726562 -16.242188 56.65625 -19.421875 C 57.59375 -22.597656 58.0625 -26.160156 58.0625 -30.109375 C 58.0625 -34.273438 57.59375 -38.023438 56.65625 -41.359375 C 55.726562 -44.703125 54.382812 -47.5625 52.625 -49.9375 C 50.863281 -52.3125 48.726562 -54.125 46.21875 -55.375 C 43.707031 -56.632812 40.898438 -57.265625 37.796875 -57.265625 C 34.648438 -57.265625 31.832031 -56.632812 29.34375 -55.375 C 26.863281 -54.125 24.742188 -52.3125 22.984375 -49.9375 C 21.222656 -47.5625 19.875 -44.703125 18.9375 -41.359375 C 18.007812 -38.023438 17.546875 -34.273438 17.546875 -30.109375 C 17.546875 -26.160156 18.007812 -22.597656 18.9375 -19.421875 C 19.875 -16.242188 21.222656 -13.546875 22.984375 -11.328125 C 24.742188 -9.117188 26.863281 -7.410156 29.34375 -6.203125 C 31.832031 -5.003906 34.648438 -4.40625 37.796875 -4.40625 Z M 37.796875 -4.40625 "/></g></g></g><g fill="#000000" fill-opacity="1"><g transform="translate(1351.98134, 1524.000031)"><g><path d="M 53.65625 0.796875 L 18.1875 -49.734375 L 17.859375 -49.734375 L 17.859375 -15.296875 C 17.859375 -12.628906 17.953125 -10.519531 18.140625 -8.96875 C 18.328125 -7.414062 18.726562 -6.210938 19.34375 -5.359375 C 19.957031 -4.503906 20.8125 -3.941406 21.90625 -3.671875 C 23 -3.410156 24.425781 -3.253906 26.1875 -3.203125 L 26.1875 0 L 2.40625 0 L 2.40625 -3.203125 C 4.375 -3.253906 5.957031 -3.425781 7.15625 -3.71875 C 8.363281 -4.019531 9.300781 -4.566406 9.96875 -5.359375 C 10.632812 -6.160156 11.070312 -7.296875 11.28125 -8.765625 C 11.5 -10.234375 11.609375 -12.222656 11.609375 -14.734375 L 11.609375 -46.9375 C 11.609375 -49.175781 11.5 -51.03125 11.28125 -52.5 C 11.070312 -53.96875 10.671875 -55.128906 10.078125 -55.984375 C 9.492188 -56.835938 8.65625 -57.4375 7.5625 -57.78125 C 6.46875 -58.132812 5.015625 -58.363281 3.203125 -58.46875 L 3.203125 -61.671875 L 25.546875 -61.671875 L 57.828125 -15.375 L 58.140625 -15.375 L 58.140625 -46.375 C 58.140625 -48.988281 58.046875 -51.082031 57.859375 -52.65625 C 57.679688 -54.238281 57.285156 -55.457031 56.671875 -56.3125 C 56.054688 -57.164062 55.203125 -57.722656 54.109375 -57.984375 C 53.015625 -58.253906 51.582031 -58.414062 49.8125 -58.46875 L 49.8125 -61.671875 L 73.609375 -61.671875 L 73.609375 -58.46875 C 71.628906 -58.414062 70.035156 -58.238281 68.828125 -57.9375 C 67.628906 -57.644531 66.695312 -57.097656 66.03125 -56.296875 C 65.363281 -55.503906 64.921875 -54.359375 64.703125 -52.859375 C 64.492188 -51.367188 64.390625 -49.394531 64.390625 -46.9375 L 64.390625 0.796875 Z M 53.65625 0.796875 "/></g></g></g><g fill="#000000" fill-opacity="1"><g transform="translate(1570.497704, 1524.000031)"><g><path d="M 59.828125 0 L 1.203125 0 L 1.203125 -1.84375 L 41.484375 -57.5 L 21.21875 -57.5 C 17.269531 -57.5 14.296875 -56.507812 12.296875 -54.53125 C 10.296875 -52.5625 8.921875 -49.492188 8.171875 -45.328125 L 5.046875 -45.328125 L 6.328125 -61.671875 L 58.234375 -61.671875 L 58.234375 -59.828125 L 18.34375 -4.484375 L 41.25 -4.484375 C 44.132812 -4.484375 46.492188 -4.722656 48.328125 -5.203125 C 50.171875 -5.679688 51.664062 -6.535156 52.8125 -7.765625 C 53.96875 -8.992188 54.863281 -10.625 55.5 -12.65625 C 56.144531 -14.6875 56.707031 -17.273438 57.1875 -20.421875 L 60.875 -20.421875 Z M 59.828125 0 "/></g></g></g><g fill="#000000" fill-opacity="1"><g transform="translate(1695.288104, 1524.000031)"><g><path d="M 40.125 -18.65625 L 17.453125 -18.65625 C 14.953125 -13 13.703125 -9.078125 13.703125 -6.890625 C 13.703125 -5.285156 14.300781 -4.269531 15.5 -3.84375 C 16.695312 -3.414062 18.5 -3.203125 20.90625 -3.203125 L 20.90625 0 L -1.046875 0 L -1.046875 -3.203125 C 0.234375 -3.359375 1.34375 -3.570312 2.28125 -3.84375 C 3.21875 -4.113281 4.046875 -4.488281 4.765625 -4.96875 C 5.484375 -5.445312 6.109375 -6.070312 6.640625 -6.84375 C 7.179688 -7.625 7.691406 -8.570312 8.171875 -9.6875 L 29.234375 -62.46875 L 35.15625 -62.46875 L 54.296875 -15.703125 C 55.421875 -12.972656 56.367188 -10.832031 57.140625 -9.28125 C 57.921875 -7.738281 58.75 -6.550781 59.625 -5.71875 C 60.507812 -4.894531 61.523438 -4.320312 62.671875 -4 C 63.816406 -3.6875 65.300781 -3.445312 67.125 -3.28125 L 67.125 0 L 36.84375 0 L 36.84375 -3.28125 C 39.40625 -3.382812 41.242188 -3.648438 42.359375 -4.078125 C 43.484375 -4.503906 44.046875 -5.359375 44.046875 -6.640625 C 44.046875 -7.390625 43.859375 -8.351562 43.484375 -9.53125 C 43.117188 -10.707031 42.613281 -12.148438 41.96875 -13.859375 Z M 19.296875 -23.46875 L 38.359375 -23.46875 L 29.15625 -47.734375 L 28.828125 -47.734375 Z M 19.296875 -23.46875 "/></g></g></g><g fill="#000000" fill-opacity="1"><g transform="translate(1821.03926, 1524.000031)"><g><path d="M 8.09375 -51.578125 C 7.289062 -52.960938 6.554688 -54.109375 5.890625 -55.015625 C 5.222656 -55.929688 4.539062 -56.640625 3.84375 -57.140625 C 3.144531 -57.648438 2.394531 -58 1.59375 -58.1875 C 0.800781 -58.375 -0.101562 -58.46875 -1.125 -58.46875 L -1.125 -61.671875 L 25.796875 -61.671875 L 25.796875 -58.46875 C 23.546875 -58.46875 21.96875 -58.253906 21.0625 -57.828125 C 20.15625 -57.398438 19.703125 -56.757812 19.703125 -55.90625 C 19.703125 -55.375 19.863281 -54.734375 20.1875 -53.984375 C 20.507812 -53.234375 21.015625 -52.21875 21.703125 -50.9375 L 33.15625 -29.078125 L 33.484375 -29.078125 L 43.578125 -45.890625 C 45.335938 -48.878906 46.5625 -51.109375 47.25 -52.578125 C 47.945312 -54.046875 48.296875 -55.207031 48.296875 -56.0625 C 48.296875 -56.96875 47.878906 -57.59375 47.046875 -57.9375 C 46.222656 -58.289062 44.691406 -58.46875 42.453125 -58.46875 L 42.453125 -61.671875 L 62.546875 -61.671875 L 62.546875 -58.46875 C 61.378906 -58.46875 60.3125 -58.28125 59.34375 -57.90625 C 58.382812 -57.53125 57.382812 -56.796875 56.34375 -55.703125 C 55.300781 -54.609375 54.125 -53.085938 52.8125 -51.140625 C 51.507812 -49.191406 49.953125 -46.640625 48.140625 -43.484375 L 36.4375 -23.46875 L 36.4375 -15.296875 C 36.4375 -12.628906 36.554688 -10.492188 36.796875 -8.890625 C 37.035156 -7.285156 37.460938 -6.066406 38.078125 -5.234375 C 38.691406 -4.410156 39.53125 -3.863281 40.59375 -3.59375 C 41.664062 -3.332031 43.054688 -3.203125 44.765625 -3.203125 L 44.765625 0 L 16.265625 0 L 16.265625 -3.203125 C 17.910156 -3.203125 19.28125 -3.332031 20.375 -3.59375 C 21.476562 -3.863281 22.347656 -4.398438 22.984375 -5.203125 C 23.628906 -6.003906 24.070312 -7.164062 24.3125 -8.6875 C 24.550781 -10.207031 24.671875 -12.222656 24.671875 -14.734375 L 24.671875 -22.109375 Z M 8.09375 -51.578125 "/></g></g></g><g fill="#000000" fill-opacity="1"><g transform="translate(1942.867383, 1524.000031)"><g><path d="M 2.796875 0 L 2.796875 -3.203125 C 4.566406 -3.253906 6 -3.398438 7.09375 -3.640625 C 8.1875 -3.878906 9.039062 -4.332031 9.65625 -5 C 10.269531 -5.664062 10.679688 -6.570312 10.890625 -7.71875 C 11.109375 -8.875 11.21875 -10.410156 11.21875 -12.328125 L 11.21875 -49.34375 C 11.21875 -51.207031 11.132812 -52.710938 10.96875 -53.859375 C 10.8125 -55.003906 10.460938 -55.910156 9.921875 -56.578125 C 9.390625 -57.253906 8.65625 -57.710938 7.71875 -57.953125 C 6.789062 -58.191406 5.578125 -58.363281 4.078125 -58.46875 L 4.078125 -61.671875 L 34.515625 -61.671875 C 39.640625 -61.671875 44.363281 -60.867188 48.6875 -59.265625 C 53.019531 -57.660156 56.757812 -55.441406 59.90625 -52.609375 C 63.0625 -49.785156 65.519531 -46.425781 67.28125 -42.53125 C 69.039062 -38.632812 69.921875 -34.390625 69.921875 -29.796875 C 69.921875 -25.421875 69.09375 -21.398438 67.4375 -17.734375 C 65.78125 -14.078125 63.46875 -10.941406 60.5 -8.328125 C 57.539062 -5.710938 53.992188 -3.671875 49.859375 -2.203125 C 45.722656 -0.734375 41.171875 0 36.203125 0 Z M 24.34375 -56.78125 C 23.4375 -56.78125 22.984375 -56.328125 22.984375 -55.421875 L 22.984375 -14.015625 C 22.984375 -10.921875 23.941406 -8.625 25.859375 -7.125 C 27.785156 -5.632812 30.753906 -4.890625 34.765625 -4.890625 C 41.753906 -4.890625 47.128906 -7 50.890625 -11.21875 C 54.660156 -15.4375 56.546875 -21.578125 56.546875 -29.640625 C 56.546875 -33.910156 56.035156 -37.726562 55.015625 -41.09375 C 54.003906 -44.457031 52.535156 -47.300781 50.609375 -49.625 C 48.691406 -51.945312 46.359375 -53.71875 43.609375 -54.9375 C 40.859375 -56.164062 37.773438 -56.78125 34.359375 -56.78125 Z M 24.34375 -56.78125 "/></g></g></g></svg>